<svg xmlns="http://www.w3.org/2000/svg" xmlns:xlink="http://www.w3.org/1999/xlink" viewBox="0 0 375 149.999998" preserveAspectRatio="xMidYMid meet" version="1.0"><defs><g/></defs><g fill="#ac8f71" fill-opacity="1"><g transform="translate(25.019533, 107.786299)"><g><path d="M 32.390625 1.015625 C 28.359375 1.015625 24.585938 0.265625 21.078125 -1.234375 C 17.566406 -2.734375 14.492188 -4.828125 11.859375 -7.515625 C 9.222656 -10.210938 7.15625 -13.359375 5.65625 -16.953125 C 4.15625 -20.554688 3.40625 -24.425781 3.40625 -28.5625 C 3.40625 -32.644531 4.15625 -36.46875 5.65625 -40.03125 C 7.15625 -43.601562 9.222656 -46.734375 11.859375 -49.421875 C 14.492188 -52.117188 17.566406 -54.21875 21.078125 -55.71875 C 24.585938 -57.21875 28.359375 -57.96875 32.390625 -57.96875 C 37.253906 -57.96875 41.769531 -56.789062 45.9375 -54.4375 C 50.101562 -52.09375 53.265625 -48.820312 55.421875 -44.625 L 48.359375 -40.546875 C 46.722656 -43.378906 44.515625 -45.613281 41.734375 -47.25 C 38.953125 -48.894531 35.722656 -49.71875 32.046875 -49.71875 C 28.359375 -49.71875 25.023438 -48.78125 22.046875 -46.90625 C 19.078125 -45.039062 16.710938 -42.519531 14.953125 -39.34375 C 13.203125 -36.175781 12.328125 -32.582031 12.328125 -28.5625 C 12.328125 -24.539062 13.191406 -20.898438 14.921875 -17.640625 C 16.648438 -14.378906 19.015625 -11.8125 22.015625 -9.9375 C 25.015625 -8.070312 28.359375 -7.140625 32.046875 -7.140625 C 35.722656 -7.140625 38.960938 -7.957031 41.765625 -9.59375 C 44.578125 -11.238281 46.773438 -13.476562 48.359375 -16.3125 L 55.421875 -12.234375 C 53.265625 -8.097656 50.101562 -4.851562 45.9375 -2.5 C 41.769531 -0.15625 37.253906 1.015625 32.390625 1.015625 Z M 32.390625 1.015625 "/></g></g></g><g fill="#ac8f71" fill-opacity="1"><g transform="translate(82.391944, 107.786299)"><g><path d="M 24.3125 1.015625 C 20.289062 1.015625 16.707031 0.0234375 13.5625 -1.953125 C 10.414062 -3.941406 7.9375 -6.59375 6.125 -9.90625 C 4.3125 -13.21875 3.40625 -16.882812 3.40625 -20.90625 C 3.40625 -24.875 4.367188 -28.5 6.296875 -31.78125 C 8.222656 -35.070312 10.867188 -37.707031 14.234375 -39.6875 C 17.609375 -41.675781 21.390625 -42.671875 25.578125 -42.671875 C 29.773438 -42.671875 33.546875 -41.71875 36.890625 -39.8125 C 40.234375 -37.914062 42.878906 -35.320312 44.828125 -32.03125 C 46.785156 -28.75 47.765625 -25.039062 47.765625 -20.90625 L 47.765625 0 L 39.78125 0 L 39.78125 -7.3125 C 38.195312 -4.757812 36.070312 -2.734375 33.40625 -1.234375 C 30.738281 0.265625 27.707031 1.015625 24.3125 1.015625 Z M 25.578125 -6.96875 C 28.191406 -6.96875 30.53125 -7.585938 32.59375 -8.828125 C 34.664062 -10.078125 36.3125 -11.765625 37.53125 -13.890625 C 38.75 -16.015625 39.359375 -18.328125 39.359375 -20.828125 C 39.359375 -23.378906 38.75 -25.71875 37.53125 -27.84375 C 36.3125 -29.96875 34.664062 -31.648438 32.59375 -32.890625 C 30.53125 -34.140625 28.191406 -34.765625 25.578125 -34.765625 C 23.035156 -34.765625 20.710938 -34.140625 18.609375 -32.890625 C 16.515625 -31.648438 14.859375 -29.96875 13.640625 -27.84375 C 12.421875 -25.71875 11.8125 -23.378906 11.8125 -20.828125 C 11.8125 -18.328125 12.421875 -16.015625 13.640625 -13.890625 C 14.859375 -11.765625 16.515625 -10.078125 18.609375 -8.828125 C 20.710938 -7.585938 23.035156 -6.96875 25.578125 -6.96875 Z M 25.578125 -6.96875 "/></g></g></g><g fill="#ac8f71" fill-opacity="1"><g transform="translate(136.194507, 107.786299)"><g><path d="M 28.21875 1.015625 C 24.03125 1.015625 20.265625 0.0507812 16.921875 -1.875 C 13.578125 -3.800781 10.925781 -6.40625 8.96875 -9.6875 C 7.007812 -12.976562 6.03125 -16.660156 6.03125 -20.734375 L 6.03125 -60.78125 L 14.453125 -60.78125 L 14.453125 -36.46875 C 16.148438 -38.332031 18.226562 -39.832031 20.6875 -40.96875 C 23.15625 -42.101562 25.78125 -42.671875 28.5625 -42.671875 C 32.8125 -42.671875 36.5625 -41.71875 39.8125 -39.8125 C 43.070312 -37.914062 45.632812 -35.320312 47.5 -32.03125 C 49.375 -28.75 50.3125 -24.984375 50.3125 -20.734375 C 50.3125 -16.773438 49.347656 -13.132812 47.421875 -9.8125 C 45.503906 -6.5 42.875 -3.863281 39.53125 -1.90625 C 36.1875 0.0390625 32.414062 1.015625 28.21875 1.015625 Z M 28.21875 -6.890625 C 30.820312 -6.890625 33.144531 -7.507812 35.1875 -8.75 C 37.226562 -10 38.859375 -11.6875 40.078125 -13.8125 C 41.296875 -15.9375 41.90625 -18.273438 41.90625 -20.828125 C 41.90625 -23.378906 41.296875 -25.703125 40.078125 -27.796875 C 38.859375 -29.890625 37.226562 -31.5625 35.1875 -32.8125 C 33.144531 -34.0625 30.820312 -34.6875 28.21875 -34.6875 C 25.613281 -34.6875 23.273438 -34.0625 21.203125 -32.8125 C 19.140625 -31.5625 17.5 -29.890625 16.28125 -27.796875 C 15.0625 -25.703125 14.453125 -23.378906 14.453125 -20.828125 C 14.453125 -18.273438 15.0625 -15.9375 16.28125 -13.8125 C 17.5 -11.6875 19.140625 -10 21.203125 -8.75 C 23.273438 -7.507812 25.613281 -6.890625 28.21875 -6.890625 Z M 28.21875 -6.890625 "/></g></g></g><g fill="#ac8f71" fill-opacity="1"><g transform="translate(189.99707, 107.786299)"><g><path d="M 11.90625 -49.890625 C 10.375 -49.890625 9.066406 -50.425781 7.984375 -51.5 C 6.910156 -52.582031 6.375 -53.890625 6.375 -55.421875 C 6.375 -56.953125 6.910156 -58.269531 7.984375 -59.375 C 9.066406 -60.476562 10.375 -61.03125 11.90625 -61.03125 C 13.425781 -61.03125 14.710938 -60.476562 15.765625 -59.375 C 16.816406 -58.269531 17.34375 -56.953125 17.34375 -55.421875 C 17.34375 -53.890625 16.816406 -52.582031 15.765625 -51.5 C 14.710938 -50.425781 13.425781 -49.890625 11.90625 -49.890625 Z M 7.734375 -41.65625 L 16.15625 -41.65625 L 16.15625 0 L 7.734375 0 Z M 7.734375 -41.65625 "/></g></g></g><g fill="#000000" fill-opacity="1"><g transform="translate(213.796869, 107.786299)"><g><path d="M 17.25 0 L 8.578125 0 L 8.578125 -56.953125 L 26.6875 -56.953125 C 31.789062 -56.953125 36.238281 -56.1875 40.03125 -54.65625 C 43.832031 -53.125 46.765625 -50.867188 48.828125 -47.890625 C 50.898438 -44.921875 51.9375 -41.226562 51.9375 -36.8125 C 51.9375 -32.269531 50.882812 -28.484375 48.78125 -25.453125 C 46.6875 -22.421875 43.785156 -20.15625 40.078125 -18.65625 C 36.367188 -17.15625 32.046875 -16.40625 27.109375 -16.40625 L 17.25 -16.40625 Z M 26.9375 -48.953125 L 17.25 -48.953125 L 17.25 -24.484375 L 26.9375 -24.484375 C 31.644531 -24.484375 35.5 -25.457031 38.5 -27.40625 C 41.507812 -29.363281 43.015625 -32.5 43.015625 -36.8125 C 43.015625 -41 41.539062 -44.066406 38.59375 -46.015625 C 35.644531 -47.972656 31.757812 -48.953125 26.9375 -48.953125 Z M 26.9375 -48.953125 "/></g></g></g><g fill="#000000" fill-opacity="1"><g transform="translate(268.449397, 107.786299)"><g><path d="M 14.453125 0 L 6.03125 0 L 6.03125 -24.8125 C 6.03125 -28.21875 6.664062 -31.25 7.9375 -33.90625 C 9.21875 -36.570312 11.085938 -38.671875 13.546875 -40.203125 C 16.015625 -41.734375 19.0625 -42.5 22.6875 -42.5 C 24 -42.5 25.304688 -42.367188 26.609375 -42.109375 C 27.910156 -41.859375 29.097656 -41.476562 30.171875 -40.96875 L 30.171875 -32.640625 C 28.128906 -33.828125 25.890625 -34.421875 23.453125 -34.421875 C 20.679688 -34.421875 18.488281 -33.523438 16.875 -31.734375 C 15.257812 -29.953125 14.453125 -27.535156 14.453125 -24.484375 Z M 14.453125 0 "/></g></g></g><g fill="#000000" fill-opacity="1"><g transform="translate(298.79305, 107.786299)"><g><path d="M 25.671875 1.015625 C 21.472656 1.015625 17.6875 0.0234375 14.3125 -1.953125 C 10.945312 -3.941406 8.285156 -6.59375 6.328125 -9.90625 C 4.378906 -13.21875 3.40625 -16.882812 3.40625 -20.90625 C 3.40625 -24.925781 4.394531 -28.582031 6.375 -31.875 C 8.351562 -35.164062 11.03125 -37.785156 14.40625 -39.734375 C 17.78125 -41.691406 21.535156 -42.671875 25.671875 -42.671875 C 29.859375 -42.671875 33.625 -41.675781 36.96875 -39.6875 C 40.3125 -37.707031 42.945312 -35.070312 44.875 -31.78125 C 46.800781 -28.5 47.765625 -24.875 47.765625 -20.90625 C 47.765625 -16.882812 46.785156 -13.21875 44.828125 -9.90625 C 42.878906 -6.59375 40.242188 -3.941406 36.921875 -1.953125 C 33.609375 0.0234375 29.859375 1.015625 25.671875 1.015625 Z M 25.671875 -6.96875 C 28.273438 -6.96875 30.597656 -7.585938 32.640625 -8.828125 C 34.679688 -10.078125 36.3125 -11.765625 37.53125 -13.890625 C 38.75 -16.015625 39.359375 -18.328125 39.359375 -20.828125 C 39.359375 -23.378906 38.75 -25.71875 37.53125 -27.84375 C 36.3125 -29.96875 34.679688 -31.648438 32.640625 -32.890625 C 30.597656 -34.140625 28.273438 -34.765625 25.671875 -34.765625 C 23.066406 -34.765625 20.710938 -34.140625 18.609375 -32.890625 C 16.515625 -31.648438 14.859375 -29.96875 13.640625 -27.84375 C 12.421875 -25.71875 11.8125 -23.378906 11.8125 -20.828125 C 11.8125 -18.328125 12.421875 -16.015625 13.640625 -13.890625 C 14.859375 -11.765625 16.515625 -10.078125 18.609375 -8.828125 C 20.710938 -7.585938 23.066406 -6.96875 25.671875 -6.96875 Z M 25.671875 -6.96875 "/></g></g></g></svg>